<svg width="218" height="28" viewBox="0 0 218 28" fill="none" xmlns="http://www.w3.org/2000/svg">
<path d="M1.20739 23.0909V8.09091H4.19034V9.9233H4.32528C4.45786 9.62973 4.64962 9.33144 4.90057 9.02841C5.15625 8.72064 5.48769 8.46496 5.89489 8.26136C6.30682 8.05303 6.81818 7.94886 7.42898 7.94886C8.22443 7.94886 8.95833 8.1572 9.63068 8.57386C10.303 8.9858 10.8404 9.60843 11.2429 10.4418C11.6454 11.2704 11.8466 12.3097 11.8466 13.5597C11.8466 14.7765 11.6501 15.804 11.2571 16.642C10.8688 17.4754 10.3385 18.1075 9.66619 18.5384C8.99858 18.9645 8.25047 19.1776 7.42188 19.1776C6.83475 19.1776 6.33523 19.0805 5.9233 18.8864C5.5161 18.6922 5.18229 18.4484 4.92188 18.1548C4.66146 17.8565 4.46259 17.5559 4.32528 17.2528H4.23295V23.0909H1.20739ZM4.16903 13.5455C4.16903 14.1941 4.259 14.7599 4.43892 15.2429C4.61884 15.7259 4.87926 16.1023 5.22017 16.3722C5.56108 16.6373 5.97538 16.7699 6.46307 16.7699C6.95549 16.7699 7.37216 16.6349 7.71307 16.3651C8.05398 16.0904 8.31203 15.7116 8.48722 15.2287C8.66714 14.741 8.7571 14.1799 8.7571 13.5455C8.7571 12.9157 8.66951 12.3617 8.49432 11.8835C8.31913 11.4053 8.06108 11.0312 7.72017 10.7614C7.37926 10.4915 6.96023 10.3565 6.46307 10.3565C5.97064 10.3565 5.55398 10.4867 5.21307 10.7472C4.87689 11.0076 4.61884 11.3769 4.43892 11.8551C4.259 12.3333 4.16903 12.8968 4.16903 13.5455ZM22.5403 11.2017L19.7705 11.3722C19.7231 11.1354 19.6213 10.9223 19.4651 10.733C19.3088 10.5388 19.1028 10.3849 18.8472 10.2713C18.5962 10.1529 18.2955 10.0938 17.9452 10.0938C17.4764 10.0938 17.0811 10.1932 16.7591 10.392C16.4371 10.5862 16.2761 10.8466 16.2761 11.1733C16.2761 11.4337 16.3803 11.6539 16.5886 11.8338C16.797 12.0137 17.1545 12.1581 17.6611 12.267L19.6355 12.6648C20.6961 12.8826 21.4868 13.233 22.0077 13.7159C22.5285 14.1989 22.7889 14.8333 22.7889 15.6193C22.7889 16.3343 22.5782 16.9616 22.1568 17.5014C21.7402 18.0412 21.1672 18.4626 20.4381 18.7656C19.7136 19.0639 18.8779 19.2131 17.931 19.2131C16.4868 19.2131 15.3363 18.9124 14.4793 18.3111C13.627 17.705 13.1275 16.8812 12.9807 15.8395L15.9565 15.6832C16.0465 16.1236 16.2643 16.4598 16.6099 16.6918C16.9556 16.919 17.3983 17.0327 17.9381 17.0327C18.4684 17.0327 18.8945 16.9309 19.2165 16.7273C19.5432 16.5189 19.7089 16.2514 19.7136 15.9247C19.7089 15.6501 19.5929 15.4252 19.3656 15.25C19.1384 15.0701 18.788 14.9328 18.3145 14.8381L16.4253 14.4616C15.3599 14.2486 14.5669 13.8793 14.046 13.3537C13.5299 12.8281 13.2719 12.1581 13.2719 11.3438C13.2719 10.643 13.4613 10.0393 13.8401 9.53267C14.2236 9.02604 14.761 8.63542 15.4523 8.3608C16.1483 8.08617 16.9627 7.94886 17.8955 7.94886C19.2733 7.94886 20.3576 8.24006 21.1483 8.82244C21.9438 9.40483 22.4078 10.1979 22.5403 11.2017ZM26.162 23.0909C25.7785 23.0909 25.4186 23.0601 25.0825 22.9986C24.751 22.9418 24.4764 22.8684 24.2586 22.7784L24.9404 20.5199C25.2955 20.6288 25.6151 20.688 25.8992 20.6974C26.188 20.7069 26.4366 20.6406 26.645 20.4986C26.858 20.3565 27.0308 20.1151 27.1634 19.7741L27.341 19.3125L23.4276 8.09091H26.6094L28.868 16.1023H28.9816L31.2614 8.09091H34.4646L30.2245 20.179C30.0209 20.7661 29.7439 21.2775 29.3935 21.7131C29.0479 22.1534 28.6099 22.492 28.0796 22.7287C27.5493 22.9702 26.9101 23.0909 26.162 23.0909ZM40.1903 19.2131C39.0728 19.2131 38.1117 18.9763 37.3067 18.5028C36.5066 18.0246 35.891 17.3617 35.4602 16.5142C35.034 15.6667 34.821 14.6913 34.821 13.5881C34.821 12.4706 35.0364 11.4905 35.4673 10.6477C35.9029 9.80019 36.5208 9.13968 37.321 8.66619C38.1211 8.18797 39.0728 7.94886 40.1761 7.94886C41.1278 7.94886 41.9611 8.12169 42.6761 8.46733C43.391 8.81297 43.9568 9.2983 44.3735 9.9233C44.7902 10.5483 45.0198 11.2822 45.0624 12.125H42.2073C42.1268 11.5805 41.9138 11.1425 41.5681 10.8111C41.2272 10.4749 40.7798 10.3068 40.2258 10.3068C39.757 10.3068 39.3475 10.4347 38.9971 10.6903C38.6514 10.9413 38.3816 11.3082 38.1874 11.7912C37.9933 12.2741 37.8962 12.8589 37.8962 13.5455C37.8962 14.2415 37.9909 14.8333 38.1803 15.321C38.3745 15.8087 38.6467 16.1804 38.9971 16.4361C39.3475 16.6918 39.757 16.8196 40.2258 16.8196C40.5714 16.8196 40.8816 16.7486 41.1562 16.6065C41.4355 16.4645 41.6652 16.2585 41.8451 15.9886C42.0298 15.714 42.1505 15.3849 42.2073 15.0014H45.0624C45.0151 15.8348 44.7878 16.5687 44.3806 17.2031C43.9781 17.8329 43.4218 18.3253 42.7116 18.6804C42.0013 19.0355 41.1609 19.2131 40.1903 19.2131ZM49.6251 12.6932V19H46.5996V4.45455H49.5399V10.0156H49.6678C49.914 9.37169 50.3117 8.86742 50.8609 8.50284C51.4102 8.13352 52.0991 7.94886 52.9277 7.94886C53.6853 7.94886 54.3458 8.11458 54.9092 8.44602C55.4774 8.77273 55.9178 9.24384 56.2303 9.85938C56.5475 10.4702 56.7037 11.2017 56.699 12.054V19H53.6734V12.5938C53.6782 11.9214 53.5077 11.3982 53.1621 11.0241C52.8212 10.6501 52.3429 10.4631 51.7274 10.4631C51.3155 10.4631 50.9509 10.5507 50.6337 10.7259C50.3212 10.901 50.075 11.1567 49.895 11.4929C49.7198 11.8243 49.6299 12.2244 49.6251 12.6932ZM63.609 19.2131C62.5058 19.2131 61.5517 18.9787 60.7468 18.5099C59.9466 18.0365 59.3287 17.3783 58.8931 16.5355C58.4575 15.688 58.2397 14.7055 58.2397 13.5881C58.2397 12.4612 58.4575 11.4763 58.8931 10.6335C59.3287 9.78598 59.9466 9.12784 60.7468 8.65909C61.5517 8.18561 62.5058 7.94886 63.609 7.94886C64.7122 7.94886 65.6639 8.18561 66.4641 8.65909C67.2691 9.12784 67.8893 9.78598 68.3249 10.6335C68.7605 11.4763 68.9783 12.4612 68.9783 13.5881C68.9783 14.7055 68.7605 15.688 68.3249 16.5355C67.8893 17.3783 67.2691 18.0365 66.4641 18.5099C65.6639 18.9787 64.7122 19.2131 63.609 19.2131ZM63.6232 16.8693C64.1251 16.8693 64.5442 16.7273 64.8803 16.4432C65.2165 16.1544 65.4698 15.7614 65.6403 15.2642C65.8155 14.767 65.9031 14.2012 65.9031 13.5668C65.9031 12.9323 65.8155 12.3665 65.6403 11.8693C65.4698 11.3722 65.2165 10.9792 64.8803 10.6903C64.5442 10.4015 64.1251 10.2571 63.6232 10.2571C63.1166 10.2571 62.6905 10.4015 62.3448 10.6903C62.0039 10.9792 61.7459 11.3722 61.5707 11.8693C61.4002 12.3665 61.315 12.9323 61.315 13.5668C61.315 14.2012 61.4002 14.767 61.5707 15.2642C61.7459 15.7614 62.0039 16.1544 62.3448 16.4432C62.6905 16.7273 63.1166 16.8693 63.6232 16.8693ZM73.5712 4.45455V19H70.5457V4.45455H73.5712ZM80.5239 19.2131C79.4206 19.2131 78.4666 18.9787 77.6616 18.5099C76.8615 18.0365 76.2436 17.3783 75.808 16.5355C75.3723 15.688 75.1545 14.7055 75.1545 13.5881C75.1545 12.4612 75.3723 11.4763 75.808 10.6335C76.2436 9.78598 76.8615 9.12784 77.6616 8.65909C78.4666 8.18561 79.4206 7.94886 80.5239 7.94886C81.6271 7.94886 82.5788 8.18561 83.379 8.65909C84.1839 9.12784 84.8042 9.78598 85.2398 10.6335C85.6754 11.4763 85.8932 12.4612 85.8932 13.5881C85.8932 14.7055 85.6754 15.688 85.2398 16.5355C84.8042 17.3783 84.1839 18.0365 83.379 18.5099C82.5788 18.9787 81.6271 19.2131 80.5239 19.2131ZM80.5381 16.8693C81.04 16.8693 81.459 16.7273 81.7952 16.4432C82.1313 16.1544 82.3847 15.7614 82.5551 15.2642C82.7303 14.767 82.8179 14.2012 82.8179 13.5668C82.8179 12.9323 82.7303 12.3665 82.5551 11.8693C82.3847 11.3722 82.1313 10.9792 81.7952 10.6903C81.459 10.4015 81.04 10.2571 80.5381 10.2571C80.0314 10.2571 79.6053 10.4015 79.2597 10.6903C78.9187 10.9792 78.6607 11.3722 78.4855 11.8693C78.3151 12.3665 78.2298 12.9323 78.2298 13.5668C78.2298 14.2012 78.3151 14.767 78.4855 15.2642C78.6607 15.7614 78.9187 16.1544 79.2597 16.4432C79.6053 16.7273 80.0314 16.8693 80.5381 16.8693ZM92.3753 23.3182C91.3952 23.3182 90.5547 23.1832 89.854 22.9134C89.158 22.6482 88.604 22.286 88.192 21.8267C87.7801 21.3674 87.5126 20.8513 87.3895 20.2784L90.1878 19.902C90.273 20.1198 90.408 20.3234 90.5926 20.5128C90.7773 20.7022 91.0211 20.8537 91.3242 20.9673C91.6319 21.0857 92.006 21.1449 92.4463 21.1449C93.1045 21.1449 93.6466 20.9839 94.0727 20.6619C94.5036 20.3447 94.719 19.812 94.719 19.0639V17.0682H94.5912C94.4586 17.3712 94.2598 17.6577 93.9946 17.9276C93.7295 18.1974 93.3885 18.4176 92.9719 18.5881C92.5552 18.7585 92.0581 18.8438 91.4804 18.8438C90.6613 18.8438 89.9155 18.6544 89.2432 18.2756C88.5756 17.892 88.0429 17.3073 87.6452 16.5213C87.2522 15.7306 87.0557 14.7315 87.0557 13.5241C87.0557 12.2884 87.2569 11.2562 87.6594 10.4276C88.0618 9.59896 88.5969 8.97869 89.2645 8.56676C89.9368 8.15483 90.6731 7.94886 91.4733 7.94886C92.0841 7.94886 92.5955 8.05303 93.0074 8.26136C93.4193 8.46496 93.7508 8.72064 94.0017 9.02841C94.2574 9.33144 94.4539 9.62973 94.5912 9.9233H94.7048V8.09091H97.7091V19.1065C97.7091 20.0346 97.4818 20.8111 97.0273 21.4361C96.5727 22.0611 95.943 22.5298 95.1381 22.8423C94.3379 23.1596 93.417 23.3182 92.3753 23.3182ZM92.4392 16.571C92.9269 16.571 93.3388 16.4503 93.675 16.2088C94.0159 15.9626 94.2763 15.6122 94.4563 15.1577C94.6409 14.6984 94.7332 14.1491 94.7332 13.5099C94.7332 12.8707 94.6433 12.3168 94.4634 11.848C94.2834 11.3745 94.023 11.0076 93.6821 10.7472C93.3412 10.4867 92.9269 10.3565 92.4392 10.3565C91.942 10.3565 91.523 10.4915 91.1821 10.7614C90.8412 11.0265 90.5831 11.3958 90.408 11.8693C90.2328 12.3428 90.1452 12.8897 90.1452 13.5099C90.1452 14.1397 90.2328 14.6842 90.408 15.1435C90.5879 15.598 90.8459 15.9508 91.1821 16.2017C91.523 16.4479 91.942 16.571 92.4392 16.571ZM99.7168 19V8.09091H102.742V19H99.7168ZM101.237 6.68466C100.787 6.68466 100.401 6.53551 100.079 6.23722C99.7617 5.93419 99.6031 5.57197 99.6031 5.15057C99.6031 4.7339 99.7617 4.37642 100.079 4.07812C100.401 3.77509 100.787 3.62358 101.237 3.62358C101.686 3.62358 102.07 3.77509 102.387 4.07812C102.709 4.37642 102.87 4.7339 102.87 5.15057C102.87 5.57197 102.709 5.93419 102.387 6.23722C102.07 6.53551 101.686 6.68466 101.237 6.68466ZM113.843 11.2017L111.073 11.3722C111.025 11.1354 110.924 10.9223 110.767 10.733C110.611 10.5388 110.405 10.3849 110.15 10.2713C109.899 10.1529 109.598 10.0938 109.248 10.0938C108.779 10.0938 108.383 10.1932 108.061 10.392C107.739 10.5862 107.578 10.8466 107.578 11.1733C107.578 11.4337 107.683 11.6539 107.891 11.8338C108.099 12.0137 108.457 12.1581 108.963 12.267L110.938 12.6648C111.998 12.8826 112.789 13.233 113.31 13.7159C113.831 14.1989 114.091 14.8333 114.091 15.6193C114.091 16.3343 113.881 16.9616 113.459 17.5014C113.042 18.0412 112.47 18.4626 111.74 18.7656C111.016 19.0639 110.18 19.2131 109.233 19.2131C107.789 19.2131 106.639 18.9124 105.782 18.3111C104.929 17.705 104.43 16.8812 104.283 15.8395L107.259 15.6832C107.349 16.1236 107.567 16.4598 107.912 16.6918C108.258 16.919 108.701 17.0327 109.24 17.0327C109.771 17.0327 110.197 16.9309 110.519 16.7273C110.846 16.5189 111.011 16.2514 111.016 15.9247C111.011 15.6501 110.895 15.4252 110.668 15.25C110.441 15.0701 110.09 14.9328 109.617 14.8381L107.728 14.4616C106.662 14.2486 105.869 13.8793 105.348 13.3537C104.832 12.8281 104.574 12.1581 104.574 11.3438C104.574 10.643 104.764 10.0393 105.142 9.53267C105.526 9.02604 106.063 8.63542 106.755 8.3608C107.451 8.08617 108.265 7.94886 109.198 7.94886C110.576 7.94886 111.66 8.24006 112.451 8.82244C113.246 9.40483 113.71 10.1979 113.843 11.2017ZM121.399 8.09091V10.3636H114.829V8.09091H121.399ZM116.321 5.47727H119.346V15.6477C119.346 15.9271 119.389 16.1449 119.474 16.3011C119.56 16.4527 119.678 16.5592 119.829 16.6207C119.986 16.6823 120.166 16.7131 120.369 16.7131C120.511 16.7131 120.653 16.7012 120.795 16.6776C120.937 16.6491 121.046 16.6278 121.122 16.6136L121.598 18.8651C121.446 18.9124 121.233 18.9669 120.959 19.0284C120.684 19.0947 120.35 19.1349 119.957 19.1491C119.228 19.1776 118.589 19.0805 118.04 18.858C117.495 18.6354 117.071 18.2898 116.768 17.821C116.465 17.3523 116.316 16.7604 116.321 16.0455V5.47727ZM131.91 11.2017L129.14 11.3722C129.093 11.1354 128.991 10.9223 128.835 10.733C128.678 10.5388 128.472 10.3849 128.217 10.2713C127.966 10.1529 127.665 10.0938 127.315 10.0938C126.846 10.0938 126.451 10.1932 126.129 10.392C125.807 10.5862 125.646 10.8466 125.646 11.1733C125.646 11.4337 125.75 11.6539 125.958 11.8338C126.166 12.0137 126.524 12.1581 127.031 12.267L129.005 12.6648C130.066 12.8826 130.856 13.233 131.377 13.7159C131.898 14.1989 132.158 14.8333 132.158 15.6193C132.158 16.3343 131.948 16.9616 131.526 17.5014C131.11 18.0412 130.537 18.4626 129.808 18.7656C129.083 19.0639 128.247 19.2131 127.3 19.2131C125.856 19.2131 124.706 18.9124 123.849 18.3111C122.997 17.705 122.497 16.8812 122.35 15.8395L125.326 15.6832C125.416 16.1236 125.634 16.4598 125.979 16.6918C126.325 16.919 126.768 17.0327 127.308 17.0327C127.838 17.0327 128.264 16.9309 128.586 16.7273C128.913 16.5189 129.078 16.2514 129.083 15.9247C129.078 15.6501 128.962 15.4252 128.735 15.25C128.508 15.0701 128.158 14.9328 127.684 14.8381L125.795 14.4616C124.729 14.2486 123.936 13.8793 123.416 13.3537C122.899 12.8281 122.641 12.1581 122.641 11.3438C122.641 10.643 122.831 10.0393 123.21 9.53267C123.593 9.02604 124.131 8.63542 124.822 8.3608C125.518 8.08617 126.332 7.94886 127.265 7.94886C128.643 7.94886 129.727 8.24006 130.518 8.82244C131.313 9.40483 131.777 10.1979 131.91 11.2017ZM135.283 19.1349C134.895 19.1349 134.561 18.9976 134.282 18.723C134.002 18.4437 133.863 18.1075 133.863 17.7145C133.863 17.3262 134.002 16.9948 134.282 16.7202C134.561 16.4408 134.895 16.3011 135.283 16.3011C135.671 16.3011 136.005 16.4408 136.284 16.7202C136.564 16.9948 136.703 17.3262 136.703 17.7145C136.703 17.9749 136.637 18.214 136.505 18.4318C136.377 18.6449 136.206 18.8153 135.993 18.9432C135.78 19.071 135.543 19.1349 135.283 19.1349Z" fill="#54BE96"/>
<path d="M147.663 10.9744L145.32 11.2301C145.253 10.9934 145.137 10.7708 144.972 10.5625C144.811 10.3542 144.593 10.1861 144.318 10.0582C144.044 9.9304 143.708 9.86648 143.31 9.86648C142.775 9.86648 142.325 9.98248 141.96 10.2145C141.601 10.4465 141.423 10.7472 141.428 11.1165C141.423 11.4337 141.539 11.6918 141.776 11.8906C142.017 12.0895 142.415 12.2528 142.969 12.3807L144.83 12.7784C145.862 13.0009 146.629 13.3537 147.131 13.8366C147.637 14.3196 147.893 14.9517 147.898 15.733C147.893 16.4195 147.692 17.0256 147.294 17.5511C146.901 18.072 146.354 18.4792 145.654 18.7727C144.953 19.0663 144.148 19.2131 143.239 19.2131C141.904 19.2131 140.829 18.9337 140.014 18.375C139.2 17.8116 138.715 17.0279 138.558 16.0241L141.065 15.7827C141.179 16.2751 141.421 16.6468 141.79 16.8977C142.159 17.1487 142.64 17.2741 143.232 17.2741C143.842 17.2741 144.333 17.1487 144.702 16.8977C145.076 16.6468 145.263 16.3366 145.263 15.9673C145.263 15.6548 145.142 15.3968 144.901 15.1932C144.664 14.9896 144.295 14.8333 143.793 14.7244L141.932 14.3338C140.886 14.116 140.111 13.7491 139.61 13.233C139.108 12.7121 138.859 12.054 138.864 11.2585C138.859 10.5862 139.041 10.0038 139.411 9.51136C139.785 9.0142 140.303 8.63068 140.966 8.3608C141.634 8.08617 142.403 7.94886 143.274 7.94886C144.553 7.94886 145.559 8.22112 146.293 8.76562C147.031 9.31013 147.488 10.0464 147.663 10.9744ZM154.447 19.2131C153.354 19.2131 152.409 18.9858 151.614 18.5312C150.823 18.072 150.214 17.4233 149.788 16.5852C149.362 15.7424 149.149 14.7505 149.149 13.6094C149.149 12.4872 149.362 11.5024 149.788 10.6548C150.219 9.80256 150.821 9.13968 151.592 8.66619C152.364 8.18797 153.271 7.94886 154.312 7.94886C154.985 7.94886 155.619 8.05777 156.216 8.27557C156.817 8.48864 157.348 8.82008 157.807 9.26989C158.271 9.7197 158.635 10.2926 158.901 10.9886C159.166 11.6799 159.298 12.5038 159.298 13.4602V14.2486H150.357V12.5156H156.834C156.829 12.0232 156.723 11.5852 156.514 11.2017C156.306 10.8134 156.015 10.508 155.641 10.2855C155.271 10.063 154.84 9.9517 154.348 9.9517C153.822 9.9517 153.361 10.0795 152.963 10.3352C152.565 10.5862 152.255 10.9176 152.033 11.3295C151.815 11.7367 151.704 12.1842 151.699 12.6719V14.1847C151.699 14.8191 151.815 15.3636 152.047 15.8182C152.279 16.268 152.603 16.6136 153.02 16.8551C153.437 17.0919 153.924 17.2102 154.483 17.2102C154.857 17.2102 155.196 17.1581 155.499 17.054C155.802 16.9451 156.064 16.7865 156.287 16.5781C156.509 16.3698 156.678 16.1117 156.791 15.804L159.192 16.0739C159.04 16.7083 158.751 17.2623 158.325 17.7358C157.904 18.2045 157.364 18.5691 156.706 18.8295C156.048 19.0852 155.295 19.2131 154.447 19.2131ZM161.073 19V8.09091H163.566V9.90909H163.68C163.879 9.27936 164.22 8.79403 164.703 8.45312C165.19 8.10748 165.747 7.93466 166.372 7.93466C166.514 7.93466 166.672 7.94176 166.848 7.95597C167.027 7.96544 167.177 7.98201 167.295 8.00568V10.3707C167.186 10.3329 167.013 10.2997 166.776 10.2713C166.544 10.2382 166.32 10.2216 166.102 10.2216C165.633 10.2216 165.212 10.3234 164.838 10.527C164.468 10.7259 164.177 11.0028 163.964 11.358C163.751 11.7131 163.644 12.1226 163.644 12.5866V19H161.073ZM178.679 8.09091L174.794 19H171.954L168.069 8.09091H170.81L173.317 16.1946H173.431L175.945 8.09091H178.679ZM180.059 19V8.09091H182.63V19H180.059ZM181.351 6.54261C180.944 6.54261 180.594 6.40767 180.3 6.13778C180.006 5.86316 179.86 5.53409 179.86 5.15057C179.86 4.76231 180.006 4.43324 180.3 4.16335C180.594 3.88873 180.944 3.75142 181.351 3.75142C181.763 3.75142 182.113 3.88873 182.402 4.16335C182.696 4.43324 182.843 4.76231 182.843 5.15057C182.843 5.53409 182.696 5.86316 182.402 6.13778C182.113 6.40767 181.763 6.54261 181.351 6.54261ZM189.632 19.2131C188.543 19.2131 187.608 18.974 186.826 18.4957C186.05 18.0175 185.451 17.357 185.03 16.5142C184.613 15.6667 184.405 14.6913 184.405 13.5881C184.405 12.4801 184.618 11.5024 185.044 10.6548C185.47 9.80256 186.071 9.13968 186.848 8.66619C187.629 8.18797 188.552 7.94886 189.618 7.94886C190.503 7.94886 191.287 8.11222 191.969 8.43892C192.655 8.76089 193.202 9.2178 193.609 9.80966C194.016 10.3968 194.248 11.0833 194.305 11.8693H191.848C191.748 11.3437 191.512 10.9058 191.138 10.5554C190.768 10.2003 190.273 10.0227 189.653 10.0227C189.128 10.0227 188.666 10.1648 188.268 10.4489C187.871 10.7282 187.56 11.1307 187.338 11.6562C187.12 12.1818 187.011 12.8116 187.011 13.5455C187.011 14.2888 187.12 14.928 187.338 15.4631C187.556 15.9934 187.861 16.4029 188.254 16.6918C188.652 16.9759 189.118 17.1179 189.653 17.1179C190.032 17.1179 190.371 17.0469 190.669 16.9048C190.972 16.758 191.225 16.5473 191.429 16.2727C191.632 15.9981 191.772 15.6643 191.848 15.2713H194.305C194.244 16.0431 194.016 16.7273 193.623 17.3239C193.23 17.9157 192.695 18.3797 192.018 18.7159C191.341 19.0473 190.546 19.2131 189.632 19.2131ZM200.846 19.2131C199.752 19.2131 198.808 18.9858 198.012 18.5312C197.221 18.072 196.613 17.4233 196.187 16.5852C195.761 15.7424 195.548 14.7505 195.548 13.6094C195.548 12.4872 195.761 11.5024 196.187 10.6548C196.618 9.80256 197.219 9.13968 197.991 8.66619C198.763 8.18797 199.669 7.94886 200.711 7.94886C201.383 7.94886 202.018 8.05777 202.614 8.27557C203.216 8.48864 203.746 8.82008 204.205 9.26989C204.669 9.7197 205.034 10.2926 205.299 10.9886C205.564 11.6799 205.697 12.5038 205.697 13.4602V14.2486H196.755V12.5156H203.232C203.228 12.0232 203.121 11.5852 202.913 11.2017C202.704 10.8134 202.413 10.508 202.039 10.2855C201.67 10.063 201.239 9.9517 200.746 9.9517C200.221 9.9517 199.759 10.0795 199.362 10.3352C198.964 10.5862 198.654 10.9176 198.431 11.3295C198.213 11.7367 198.102 12.1842 198.097 12.6719V14.1847C198.097 14.8191 198.213 15.3636 198.445 15.8182C198.677 16.268 199.002 16.6136 199.418 16.8551C199.835 17.0919 200.323 17.2102 200.881 17.2102C201.255 17.2102 201.594 17.1581 201.897 17.054C202.2 16.9451 202.463 16.7865 202.685 16.5781C202.908 16.3698 203.076 16.1117 203.19 15.804L205.59 16.0739C205.439 16.7083 205.15 17.2623 204.724 17.7358C204.302 18.2045 203.763 18.5691 203.104 18.8295C202.446 19.0852 201.693 19.2131 200.846 19.2131ZM216.094 10.9744L213.75 11.2301C213.684 10.9934 213.568 10.7708 213.402 10.5625C213.241 10.3542 213.023 10.1861 212.749 10.0582C212.474 9.9304 212.138 9.86648 211.74 9.86648C211.205 9.86648 210.755 9.98248 210.391 10.2145C210.031 10.4465 209.853 10.7472 209.858 11.1165C209.853 11.4337 209.969 11.6918 210.206 11.8906C210.448 12.0895 210.845 12.2528 211.399 12.3807L213.26 12.7784C214.292 13.0009 215.059 13.3537 215.561 13.8366C216.068 14.3196 216.324 14.9517 216.328 15.733C216.324 16.4195 216.122 17.0256 215.725 17.5511C215.332 18.072 214.785 18.4792 214.084 18.7727C213.383 19.0663 212.578 19.2131 211.669 19.2131C210.334 19.2131 209.259 18.9337 208.445 18.375C207.63 17.8116 207.145 17.0279 206.989 16.0241L209.496 15.7827C209.61 16.2751 209.851 16.6468 210.22 16.8977C210.59 17.1487 211.07 17.2741 211.662 17.2741C212.273 17.2741 212.763 17.1487 213.132 16.8977C213.506 16.6468 213.693 16.3366 213.693 15.9673C213.693 15.6548 213.573 15.3968 213.331 15.1932C213.094 14.9896 212.725 14.8333 212.223 14.7244L210.362 14.3338C209.316 14.116 208.542 13.7491 208.04 13.233C207.538 12.7121 207.29 12.054 207.294 11.2585C207.29 10.5862 207.472 10.0038 207.841 9.51136C208.215 9.0142 208.734 8.63068 209.397 8.3608C210.064 8.08617 210.834 7.94886 211.705 7.94886C212.983 7.94886 213.989 8.22112 214.723 8.76562C215.462 9.31013 215.919 10.0464 216.094 10.9744Z" fill="#191A15"/>
</svg>
